<?xml version="1.0" encoding="utf-8"?>
<!-- Generator: Adobe Illustrator 27.7.0, SVG Export Plug-In . SVG Version: 6.00 Build 0)  -->
<svg version="1.1" id="Layer_1" xmlns="http://www.w3.org/2000/svg" xmlns:xlink="http://www.w3.org/1999/xlink" x="0px" y="0px"
	 viewBox="0 0 1224 1224" style="enable-background:new 0 0 1224 1224;" xml:space="preserve">
<style type="text/css">
	.st0{fill:#E6E7E8;}
</style>
<path class="st0" d="M612,247.4c49.3,0,97,9.6,141.9,28.6c43.4,18.4,82.4,44.7,115.9,78.2s59.8,72.5,78.2,115.9
	c19,44.9,28.6,92.6,28.6,141.9S967,709,948,753.9c-18.4,43.4-44.7,82.4-78.2,115.9s-72.5,59.8-115.9,78.2
	c-44.9,19-92.6,28.6-141.9,28.6S515,967,470.1,948c-43.4-18.4-82.4-44.7-115.9-78.2s-59.8-72.5-78.2-115.9
	c-19-44.9-28.6-92.6-28.6-141.9s9.6-97,28.6-141.9c18.4-43.4,44.7-82.4,78.2-115.9s72.5-59.8,115.9-78.2
	C515,257,562.7,247.4,612,247.4 M612,151.1c-254.6,0-460.9,206.4-460.9,460.9s206.4,460.9,460.9,460.9s460.9-206.4,460.9-460.9
	S866.6,151.1,612,151.1L612,151.1z"/>
<g>
	<path class="st0" d="M762.1,784.7c-9,0-18.2-2.5-26.4-7.7L564.6,668.5c-14.3-9.1-23-24.8-23-41.7V384.6c0-27.3,22.1-49.4,49.4-49.4
		c27.3,0,49.4,22.1,49.4,49.4v215l148.2,93.9c23,14.6,29.9,45.1,15.3,68.2C794.5,776.5,778.5,784.7,762.1,784.7z"/>
</g>
</svg>
