<?xml version="1.0" encoding="utf-8"?>
<!-- Generator: Adobe Illustrator 27.7.0, SVG Export Plug-In . SVG Version: 6.00 Build 0)  -->
<svg version="1.1" id="Layer_1" xmlns="http://www.w3.org/2000/svg" xmlns:xlink="http://www.w3.org/1999/xlink" x="0px" y="0px"
	 viewBox="0 0 1224 1224" style="enable-background:new 0 0 1224 1224;" xml:space="preserve">
<style type="text/css">
	.st0{fill:#E6E7E8;}
</style>
<g>
	<g>
		<path class="st0" d="M760,343.4L760,343.4c0,22.7,16.4,42,38.8,45.8c105.7,18.4,186,110.6,186,221.5s-80.3,203.1-186,221.5
			c-22.4,3.9-38.8,23.1-38.8,45.8v0c0,28.8,26,50.7,54.4,45.8c149.6-25.8,263.4-156.2,263.4-313.1S964,323.4,814.4,297.6
			C786,292.7,760,314.5,760,343.4z"/>
		<path class="st0" d="M760,526.3L760,526.3c0,15.7,9,29.9,23.1,36.7c17.7,8.6,29.9,26.7,29.9,47.7c0,21-12.2,39.1-29.9,47.7
			c-14.1,6.8-23.1,21.1-23.1,36.7v0c0,30.1,31.4,49.8,58.5,36.7c45-21.8,76-67.8,76-121.2c0-53.3-31-99.4-76-121.2
			C791.4,476.5,760,496.2,760,526.3z"/>
	</g>
	<path class="st0" d="M715.1,374.5v475.7c0,60.6-66.9,97.4-118.1,64.8L322.3,740H216c-38.5,0-69.8-31.2-69.8-69.8V554.5
		c0-38.5,31.2-69.8,69.8-69.8h106.3l274.8-175C648.2,277.2,715.1,313.9,715.1,374.5z"/>
</g>
</svg>
