<?xml version="1.0" encoding="utf-8"?>
<!-- Generator: Adobe Illustrator 27.7.0, SVG Export Plug-In . SVG Version: 6.00 Build 0)  -->
<svg version="1.1" id="Layer_1" xmlns="http://www.w3.org/2000/svg" xmlns:xlink="http://www.w3.org/1999/xlink" x="0px" y="0px"
	 viewBox="0 0 1224 1224" style="enable-background:new 0 0 1224 1224;" xml:space="preserve">
<style type="text/css">
	.st0{fill:#E6E7E8;}
</style>
<g>
	<g>
		<path class="st0" d="M685.4,304.1c0-0.3,0-0.6,0-0.9v-31.7h23.6c26.6,0,48.1-21.6,48.1-48.1v-29c0-26.6-21.6-48.1-48.1-48.1H496.4
			c-26.6,0-48.2,21.6-48.2,48.1v29c0,26.6,21.6,48.1,48.2,48.1H520v31.7c0,0.3,0,0.6,0,0.9C343.7,342,211.5,498.9,211.5,686.6
			c0,216.1,175.2,391.2,391.2,391.2c216.1,0,391.2-175.2,391.2-391.2C993.9,498.9,861.8,342,685.4,304.1z M821.5,905.4
			c-28.4,28.4-61.5,50.8-98.4,66.4c-38.1,16.1-78.6,24.3-120.4,24.3c-41.8,0-82.3-8.2-120.4-24.3c-36.8-15.6-70-37.9-98.4-66.4
			c-28.4-28.4-50.8-61.6-66.4-98.4c-16.1-38.1-24.3-78.6-24.3-120.4c0-41.8,8.2-82.3,24.3-120.4c15.6-36.8,37.9-69.9,66.4-98.4
			c28.4-28.4,61.6-50.8,98.4-66.4c38.1-16.1,78.6-24.3,120.4-24.3c41.8,0,82.3,8.2,120.4,24.3c36.8,15.6,69.9,37.9,98.4,66.4
			c28.4,28.4,50.8,61.5,66.4,98.4c16.1,38.1,24.3,78.6,24.3,120.4c0,41.8-8.2,82.3-24.3,120.4C872.3,843.8,850,877,821.5,905.4z"/>
	</g>
	<g>
		<path class="st0" d="M573,763.3c-12.3,0-24.6-4.7-34-14.1c-18.8-18.8-18.8-49.3,0-68l166.3-166.3c18.8-18.8,49.3-18.8,68,0
			c18.8,18.8,18.8,49.3,0,68L607.1,749.2C597.7,758.6,585.3,763.3,573,763.3z"/>
	</g>
</g>
</svg>
