<?xml version="1.0" encoding="utf-8"?>
<!-- Generator: Adobe Illustrator 27.7.0, SVG Export Plug-In . SVG Version: 6.00 Build 0)  -->
<svg version="1.1" id="Layer_1" xmlns="http://www.w3.org/2000/svg" xmlns:xlink="http://www.w3.org/1999/xlink" x="0px" y="0px"
	 viewBox="0 0 1224 1224" style="enable-background:new 0 0 1224 1224;" xml:space="preserve">
<style type="text/css">
	.st0{fill:#E6E7E8;}
</style>
<g>
	<path class="st0" d="M612,349.5c33.8,0,67.5,5.3,100.1,15.8c32.4,10.4,64.1,25.9,94.3,46.2c30.6,20.6,59.7,46,86.4,75.7
		c27.3,30.3,52.2,64.9,73.8,102.8c6.6,11.5,6.6,32.5,0,44c-21.7,37.9-46.5,72.5-73.8,102.8c-26.7,29.7-55.8,55.1-86.4,75.7
		c-30.2,20.3-61.9,35.8-94.3,46.2c-32.6,10.5-66.3,15.8-100.1,15.8s-67.5-5.3-100.1-15.8c-32.4-10.4-64.1-25.9-94.3-46.2
		c-30.6-20.6-59.7-46-86.4-75.7c-27.3-30.3-52.2-64.9-73.8-102.8c-6.6-11.5-6.6-32.5,0-44c21.7-38,46.5-72.5,73.8-102.8
		c26.7-29.7,55.8-55.1,86.4-75.7c30.2-20.3,61.9-35.8,94.3-46.2C544.5,354.8,578.2,349.5,612,349.5 M612,243.3
		c-182.6,0-344.8,115.4-446.8,293.9c-25.3,44.3-25.3,105.2,0,149.4c102,178.5,264.2,293.9,446.8,293.9s344.8-115.4,446.8-293.9
		c25.3-44.3,25.3-105.2,0-149.4C956.8,358.8,794.6,243.3,612,243.3L612,243.3z"/>
	<circle class="st0" cx="612" cy="604.7" r="195"/>
</g>
</svg>
