<?xml version="1.0" encoding="utf-8"?>
<!-- Generator: Adobe Illustrator 27.7.0, SVG Export Plug-In . SVG Version: 6.00 Build 0)  -->
<svg version="1.1" id="Layer_1" xmlns="http://www.w3.org/2000/svg" xmlns:xlink="http://www.w3.org/1999/xlink" x="0px" y="0px"
	 viewBox="0 0 1224 1224" style="enable-background:new 0 0 1224 1224;" xml:space="preserve">
<style type="text/css">
	.st0{fill:#E6E7E8;}
</style>
<g>
	<g>
		<path class="st0" d="M1041.7,326.3c0,13.4-5.4,25.5-14.2,34.2c-8.8,8.8-20.9,14.2-34.2,14.2H442.8v89.1
			c0,23.5-19.1,42.6-42.6,42.6h-64.9c-23.5,0-42.6-19.1-42.6-42.6v-89.1h-62c-26.7,0-48.4-21.7-48.4-48.4
			c0-26.7,21.7-48.4,48.4-48.4h62v-89.1c0-23.5,19.1-42.6,42.6-42.6h64.9c23.5,0,42.6,19.1,42.6,42.6v89.1h550.5
			C1020,277.9,1041.7,299.6,1041.7,326.3z"/>
	</g>
	<g>
		<path class="st0" d="M1041.7,612c0,26.7-21.7,48.4-48.4,48.4h-62v89.1c0,23.5-19.1,42.6-42.6,42.6h-64.9
			c-23.5,0-42.6-19.1-42.6-42.6v-89.1H230.7c-13.4,0-25.5-5.4-34.2-14.2c-8.8-8.8-14.2-20.9-14.2-34.2c0-26.7,21.7-48.4,48.4-48.4
			h550.5v-89.1c0-23.5,19.1-42.6,42.6-42.6h64.9c23.5,0,42.6,19.1,42.6,42.6v89.1h62C1020,563.6,1041.7,585.3,1041.7,612z"/>
	</g>
	<g>
		<path class="st0" d="M1041.7,897.7c0,13.4-5.4,25.5-14.2,34.2c-8.8,8.8-20.9,14.2-34.2,14.2H658.2v89.1
			c0,23.5-19.1,42.6-42.6,42.6h-64.9c-23.5,0-42.6-19.1-42.6-42.6v-89.1H230.7c-26.7,0-48.4-21.7-48.4-48.4s21.7-48.4,48.4-48.4
			h277.4v-89.1c0-23.5,19.1-42.6,42.6-42.6h64.9c23.5,0,42.6,19.1,42.6,42.6v89.1h335.1C1020,849.3,1041.7,870.9,1041.7,897.7z"/>
	</g>
</g>
</svg>
