<?xml version="1.0" encoding="utf-8"?>
<!-- Generator: Adobe Illustrator 27.7.0, SVG Export Plug-In . SVG Version: 6.00 Build 0)  -->
<svg version="1.1" id="Layer_1" xmlns="http://www.w3.org/2000/svg" xmlns:xlink="http://www.w3.org/1999/xlink" x="0px" y="0px"
	 viewBox="0 0 1224 1224" style="enable-background:new 0 0 1224 1224;" xml:space="preserve">
<style type="text/css">
	.st0{fill:#E6E7E8;}
</style>
<g>
	<path class="st0" d="M402.4,1077.8H260.2c-57.9,0-104.8-46.9-104.8-104.8V251c0-57.9,46.9-104.8,104.8-104.8h142.1
		c57.9,0,104.8,46.9,104.8,104.8v722C507.2,1030.9,460.3,1077.8,402.4,1077.8z"/>
	<path class="st0" d="M963.8,1077.8H821.6c-57.9,0-104.8-46.9-104.8-104.8V251c0-57.9,46.9-104.8,104.8-104.8h142.1
		c57.9,0,104.8,46.9,104.8,104.8v722C1068.6,1030.9,1021.7,1077.8,963.8,1077.8z"/>
</g>
</svg>
