<?xml version="1.0" encoding="utf-8"?>
<!-- Generator: Adobe Illustrator 27.7.0, SVG Export Plug-In . SVG Version: 6.00 Build 0)  -->
<svg version="1.1" id="Layer_1" xmlns="http://www.w3.org/2000/svg" xmlns:xlink="http://www.w3.org/1999/xlink" x="0px" y="0px"
	 viewBox="0 0 1224 1224" style="enable-background:new 0 0 1224 1224;" xml:space="preserve">
<style type="text/css">
	.st0{fill:#E6E7E8;}
</style>
<g>
	<path class="st0" d="M715.1,374.2v475.6c0,60.6-66.9,97.4-118.1,64.8l-274.8-175H216c-38.5,0-69.8-31.2-69.8-69.8V554.1
		c0-38.5,31.2-69.8,69.8-69.8h106.3l274.8-175C648.2,276.8,715.1,313.6,715.1,374.2z"/>
	<g>
		<path class="st0" d="M1053,695.3c15.8,15.8,15.8,41.4,0,57.3c-15.8,15.8-41.5,15.8-57.3,0l-83.3-83.3l-83.3,83.3
			c-15.8,15.8-41.4,15.8-57.3,0c-15.8-15.8-15.8-41.5,0-57.3l83.3-83.3l-83.3-83.3c-15.8-15.8-15.8-41.4,0-57.3
			c7.9-7.9,18.3-11.9,28.6-11.9c10.4,0,20.7,4,28.6,11.9l83.3,83.3l83.3-83.3c15.8-15.8,41.4-15.8,57.3,0
			c7.9,7.9,11.9,18.3,11.9,28.6s-4,20.7-11.9,28.6L969.7,612L1053,695.3z"/>
	</g>
</g>
</svg>
