<?xml version="1.0" encoding="utf-8"?>
<!-- Generator: Adobe Illustrator 27.7.0, SVG Export Plug-In . SVG Version: 6.00 Build 0)  -->
<svg version="1.1" id="Layer_1" xmlns="http://www.w3.org/2000/svg" xmlns:xlink="http://www.w3.org/1999/xlink" x="0px" y="0px"
	 viewBox="0 0 1224 1224" style="enable-background:new 0 0 1224 1224;" xml:space="preserve">
<style type="text/css">
	.st0{fill:#E6E7E8;}
</style>
<g>
	<path class="st0" d="M1038.8,813.4l-44.2-32.4c23.4-28.9,44.9-60.5,64.2-94.3c25.3-44.3,25.3-105.2,0-149.4
		c-102-178.5-264.2-294-446.8-294c-89,0-173.1,27.4-247.7,76.1l-73.1-53.6c-16-11.7-34.5-17.3-52.9-17.3
		c-27.6,0-54.8,12.7-72.4,36.7c-29.3,39.9-20.6,96.1,19.4,125.3l44.2,32.4c-23.4,28.9-44.9,60.5-64.2,94.4
		c-25.3,44.3-25.3,105.2,0,149.4C267.2,865.2,429.4,980.7,612,980.7c89,0,173.1-27.4,247.7-76.1l73.1,53.6
		c16,11.7,34.5,17.3,52.9,17.3c27.6,0,54.9-12.7,72.4-36.7C1087.4,898.8,1078.7,842.7,1038.8,813.4z M511.9,365.3
		c32.6-10.5,66.3-15.8,100.1-15.8c33.8,0,67.5,5.3,100.1,15.8c32.4,10.4,64.1,25.9,94.3,46.2c30.6,20.6,59.7,46,86.4,75.7
		c27.3,30.3,52.1,64.9,73.8,102.8c6.6,11.5,6.6,32.5,0,44c-17.4,30.4-36.8,58.6-57.8,84.2l-105.2-77c2.2-11.8,3.4-24,3.4-36.5
		c0-107.7-87.3-195-195-195c-33.5,0-65.1,8.5-92.6,23.4l-61.7-45.2C475.4,378.7,493.5,371.2,511.9,365.3z M712.1,858.7
		c-32.6,10.5-66.3,15.8-100.1,15.8c-33.8,0-67.5-5.3-100.1-15.8c-32.4-10.4-64.1-25.9-94.3-46.2c-30.6-20.6-59.7-46-86.4-75.7
		c-27.3-30.3-52.1-64.9-73.8-102.8c-6.6-11.5-6.6-32.5,0-44c17.4-30.4,36.8-58.6,57.8-84.2l103.2,75.5c-0.9,7.7-1.4,15.5-1.4,23.4
		c0,107.7,87.3,195,195,195c28.8,0,56.2-6.2,80.8-17.5l73.6,53.9C748.6,845.3,730.4,852.8,712.1,858.7z"/>
</g>
</svg>
